<svg xmlns="http://www.w3.org/2000/svg" xmlns:xlink="http://www.w3.org/1999/xlink" width="175" height="175" viewBox="0 0 175 175">
  <defs>
    <filter id="b078a5b35f9c08edf34dc20bde715530" x="0" y="0" width="175" height="175" filterUnits="userSpaceOnUse">
      <feOffset dx="5" dy="5" input="SourceAlpha"/>
      <feGaussianBlur result="blur"/>
      <feFlood/>
      <feComposite operator="in" in2="blur"/>
      <feComposite in="SourceGraphic"/>
    </filter>
  </defs>
  <g id="그룹_65" data-name="그룹 65" transform="translate(-900 -1668)">
    <g transform="matrix(1, 0, 0, 1, 900, 1668)" filter="url(#b078a5b35f9c08edf34dc20bde715530)">
      <g id="b078a5b35f9c08edf34dc20bde715530-2" data-name="b078a5b35f9c08edf34dc20bde715530" fill="#fff" stroke="#000" stroke-width="5">
        <circle cx="85" cy="85" r="85" stroke="none"/>
        <circle cx="85" cy="85" r="82.5" fill="none"/>
      </g>
    </g>
    <g id="그룹_59" data-name="그룹 59" transform="translate(947 1722.942)">
      <g id="그룹_58" data-name="그룹 58">
        <path id="패스_142" data-name="패스 142" d="M379.827,390.485a2.653,2.653,0,0,1,2.46,1.768l19.442,54.792a2.65,2.65,0,0,1-5,1.771l-5.02-14.143H366.553l-5.5,14.214a2.651,2.651,0,1,1-4.945-1.913l21.21-54.792A2.655,2.655,0,0,1,379.827,390.485Zm-.145,10.276L368.607,429.37h21.227Z" transform="translate(-355.928 -390.485)" stroke="#000" stroke-width="1"/>
        <path id="패스_143" data-name="패스 143" d="M384.068,397.986l1.014.035c6.932.343,11.057,4.334,11.344,10.76l.014.725v19.442a2.653,2.653,0,0,1-2.291,2.626l-.361.025a2.654,2.654,0,0,1-2.627-2.294l-.025-.357,0-.371a19.789,19.789,0,0,1-9.718,3.023,11.057,11.057,0,0,1-11.489-11.489c0-6.1,4.2-10.626,11.171-11.471a26.613,26.613,0,0,1,10.036.742c-.035-3.913-1.965-5.85-6.313-6.066-3.4-.17-5.794.307-7.194,1.29a2.651,2.651,0,0,1-3.044-4.341C376.91,398.633,380.077,397.912,384.068,397.986Zm7.066,17.046-1.071-.318a21.4,21.4,0,0,0-8.328-.679c-4.355.527-6.5,2.842-6.5,6.2a5.783,5.783,0,0,0,6.186,6.186c2.4,0,5.37-1.11,8.841-3.408l.877-.6Z" transform="translate(-320.44 -371.484)" stroke="#000" stroke-width="1"/>
      </g>
    </g>
  </g>
</svg>
